<?xml version="1.0" encoding="utf-8"?>
<!-- Generator: Adobe Illustrator 27.3.1, SVG Export Plug-In . SVG Version: 6.00 Build 0)  -->
<svg version="1.1" id="Layer_1" xmlns="http://www.w3.org/2000/svg" xmlns:xlink="http://www.w3.org/1999/xlink" x="0px" y="0px"
	 viewBox="0 0 300 300" style="enable-background:new 0 0 300 300;" xml:space="preserve">
<style type="text/css">
	.st0{fill:#9999CE;}
</style>
<g>
	<g>
		<g>
			<path class="st0" d="M222.5,5h-145C37.63,5,5,37.63,5,77.5V222.5C5,262.36,37.63,295,77.5,295h145c39.87,0,72.5-32.64,72.5-72.5
				V77.5C295,37.63,262.37,5,222.5,5z M270.83,222.5c0,26.64-21.67,48.33-48.33,48.33h-145c-26.65,0-48.33-21.69-48.33-48.33V77.5
				c0-26.65,21.68-48.33,48.33-48.33h145c26.66,0,48.33,21.68,48.33,48.33L270.83,222.5L270.83,222.5z"/>
		</g>
	</g>
	<g>
		<g>
			<circle class="st0" cx="228.55" cy="71.45" r="18.13"/>
		</g>
	</g>
	<g>
		<g>
			<path class="st0" d="M150,77.5c-40.05,0-72.5,32.45-72.5,72.5c0,40.03,32.45,72.51,72.5,72.51c40.04,0,72.5-32.48,72.5-72.51
				C222.5,109.95,190.04,77.5,150,77.5z M150,198.34c-26.69,0-48.33-21.64-48.33-48.34s21.64-48.33,48.33-48.33
				s48.33,21.63,48.33,48.33S176.69,198.34,150,198.34z"/>
		</g>
	</g>
	<g>
	</g>
	<g>
	</g>
	<g>
	</g>
	<g>
	</g>
	<g>
	</g>
	<g>
	</g>
	<g>
	</g>
	<g>
	</g>
	<g>
	</g>
	<g>
	</g>
	<g>
	</g>
	<g>
	</g>
	<g>
	</g>
	<g>
	</g>
	<g>
	</g>
</g>
</svg>
