<?xml version="1.0" encoding="utf-8"?>
<!-- Generator: Adobe Illustrator 27.3.1, SVG Export Plug-In . SVG Version: 6.00 Build 0)  -->
<svg version="1.1" id="Layer_1" xmlns="http://www.w3.org/2000/svg" xmlns:xlink="http://www.w3.org/1999/xlink" x="0px" y="0px"
	 viewBox="0 0 300 300" style="enable-background:new 0 0 300 300;" xml:space="preserve">
<style type="text/css">
	.st0{fill:#9999CE;}
</style>
<g>
	<path class="st0" d="M274.09,5H25.91C14.36,5,5,14.36,5,25.91v248.17C5,285.64,14.36,295,25.91,295h248.17
		c11.55,0,20.91-9.36,20.91-20.91V25.91C295,14.36,285.64,5,274.09,5z M107.86,224.2H72.55V117.96h35.31V224.2z M90.21,103.45h-0.23
		c-11.85,0-19.51-8.16-19.51-18.35c0-10.43,7.9-18.36,19.98-18.36s19.51,7.93,19.74,18.36C110.19,95.29,102.52,103.45,90.21,103.45z
		 M235.2,224.2h-35.31v-56.84c0-14.28-5.11-24.03-17.89-24.03c-9.76,0-15.57,6.57-18.12,12.91c-0.93,2.27-1.16,5.44-1.16,8.62v59.33
		h-35.31c0,0,0.46-96.28,0-106.24h35.31V133c4.69-7.24,13.09-17.54,31.82-17.54c23.23,0,40.66,15.18,40.66,47.82V224.2z"/>
</g>
</svg>
